<svg xmlns="http://www.w3.org/2000/svg" width="1200" height="520" viewBox="0 0 1200 520" role="img"><defs><marker id="arr" viewBox="0 0 10 10" refX="9" refY="5" markerWidth="7" markerHeight="7" orient="auto-start-reverse"><path d="M0,1 L9,5 L0,9" fill="none" stroke="#b4b4bd" stroke-width="1.5"/></marker></defs><rect x="0.5" y="0.5" width="1199" height="519" rx="18" fill="#fbfbfc" stroke="#e4e4e9"/><text x="600.0" y="64" font-family="'ABC Diatype Mono', ui-monospace, SFMono-Regular, Menlo, monospace" font-size="11" fill="#8e8e99" text-anchor="middle" font-weight="400" letter-spacing="1.6">PRESENTATION-AGENT</text><text x="600.0" y="112" font-family="'ABC Otto', 'ABC Diatype', -apple-system, 'Helvetica Neue', Helvetica, Arial, sans-serif" font-size="36" fill="#1f1f24" text-anchor="middle" font-weight="500">From the meeting transcript to the client deck</text><text x="600.0" y="146" font-family="'ABC Diatype', -apple-system, 'Helvetica Neue', Helvetica, Arial, sans-serif" font-size="17" fill="#6b6b76" text-anchor="middle" font-weight="400">Your brand, your tone, the numbers said in the call. Ready to send.</text><text x="170" y="180" font-family="'ABC Diatype Mono', ui-monospace, SFMono-Regular, Menlo, monospace" font-size="11" fill="#8e8e99" text-anchor="middle" font-weight="400" letter-spacing="1.6">YOUR NOTETAKER</text><path d="M236.0,220 C320.0,220 330.0,320 418.0,320" fill="none" stroke="#b4b4bd" stroke-width="1.25"/><rect x="124.5" y="205.0" width="105.5" height="30" rx="15.0" fill="#ffffff" stroke="#d6d6dc" stroke-width="1"/><circle cx="139.5" cy="220" r="3.5" fill="#8e8e99"/><text x="150.5" y="224.9" font-family="'ABC Diatype', -apple-system, 'Helvetica Neue', Helvetica, Arial, sans-serif" font-size="14" fill="#1f1f24">Fireflies</text><path d="M236.0,270 C320.0,270 330.0,320 418.0,320" fill="none" stroke="#b4b4bd" stroke-width="1.25"/><rect x="139.0" y="255.0" width="91.0" height="30" rx="15.0" fill="#ffffff" stroke="#d6d6dc" stroke-width="1"/><circle cx="154.0" cy="270" r="3.5" fill="#8e8e99"/><text x="165.0" y="274.9" font-family="'ABC Diatype', -apple-system, 'Helvetica Neue', Helvetica, Arial, sans-serif" font-size="14" fill="#1f1f24">Granola</text><path d="M236.0,320 C320.0,320 330.0,320 418.0,320" fill="none" stroke="#b4b4bd" stroke-width="1.25"/><rect x="153.6" y="305.0" width="76.4" height="30" rx="15.0" fill="#ffffff" stroke="#d6d6dc" stroke-width="1"/><circle cx="168.6" cy="320" r="3.5" fill="#8e8e99"/><text x="179.6" y="324.9" font-family="'ABC Diatype', -apple-system, 'Helvetica Neue', Helvetica, Arial, sans-serif" font-size="14" fill="#1f1f24">tl;dv</text><path d="M236.0,370 C320.0,370 330.0,320 418.0,320" fill="none" stroke="#b4b4bd" stroke-width="1.25"/><rect x="153.6" y="355.0" width="76.4" height="30" rx="15.0" fill="#ffffff" stroke="#d6d6dc" stroke-width="1"/><circle cx="168.6" cy="370" r="3.5" fill="#8e8e99"/><text x="179.6" y="374.9" font-family="'ABC Diatype', -apple-system, 'Helvetica Neue', Helvetica, Arial, sans-serif" font-size="14" fill="#1f1f24">Otter</text><path d="M236.0,420 C320.0,420 330.0,320 418.0,320" fill="none" stroke="#b4b4bd" stroke-width="1.25"/><rect x="102.6" y="405.0" width="127.4" height="30" rx="15.0" fill="#ffffff" stroke="#d6d6dc" stroke-width="1"/><circle cx="117.6" cy="420" r="3.5" fill="#8e8e99"/><text x="128.6" y="424.9" font-family="'ABC Diatype', -apple-system, 'Helvetica Neue', Helvetica, Arial, sans-serif" font-size="14" fill="#1f1f24">Meet · Teams</text><rect x="420.0" y="235.0" width="280" height="170" rx="18" fill="#edf2fe" stroke="#b2c9f9"/><text x="560.0" y="269.0" font-family="'ABC Diatype Mono', ui-monospace, SFMono-Regular, Menlo, monospace" font-size="11" fill="#1b43a3" text-anchor="middle" font-weight="400" letter-spacing="1.6">THE AGENT READS</text><text x="560.0" y="307.0" font-family="'ABC Diatype Mono', ui-monospace, SFMono-Regular, Menlo, monospace" font-size="15" fill="#1b43a3" text-anchor="middle" font-weight="400">company/  ·  people/</text><text x="560.0" y="337.0" font-family="'ABC Diatype Mono', ui-monospace, SFMono-Regular, Menlo, monospace" font-size="15" fill="#1b43a3" text-anchor="middle" font-weight="400">clients/  ·  meetings/</text><text x="560.0" y="367.0" font-family="'ABC Diatype Mono', ui-monospace, SFMono-Regular, Menlo, monospace" font-size="15" fill="#1b43a3" text-anchor="middle" font-weight="400">skills/  ·  deck-kit/</text><path d="M706.0,320 L846,320" fill="none" stroke="#b4b4bd" stroke-width="1.25" marker-end="url(#arr)"/><rect x="884" y="226.0" width="240" height="140" rx="10" fill="#ffffff" stroke="#d6d6dc"/><rect x="872" y="238.0" width="240" height="140" rx="10" fill="#ffffff" stroke="#d6d6dc"/><rect x="860" y="250.0" width="240" height="140" rx="10" fill="#1b43a3" stroke="#1b43a3"/><rect x="876" y="266.0" width="67" height="8" rx="4" fill="#ffffff" opacity="0.7"/><rect x="876" y="344.0" width="168" height="12" rx="6" fill="#ffffff"/><rect x="876" y="364.0" width="96" height="8" rx="4" fill="#ffffff" opacity="0.6"/><text x="980.0" y="420.0" font-family="'ABC Diatype Mono', ui-monospace, SFMono-Regular, Menlo, monospace" font-size="11" fill="#8e8e99" text-anchor="middle" font-weight="400" letter-spacing="1.6"></text><text x="980.0" y="442.0" font-family="'ABC Diatype', -apple-system, 'Helvetica Neue', Helvetica, Arial, sans-serif" font-size="14" fill="#1f1f24" text-anchor="middle" font-weight="400"></text><text x="980.0" y="424.0" font-family="'ABC Diatype Mono', ui-monospace, SFMono-Regular, Menlo, monospace" font-size="12" fill="#8e8e99" text-anchor="middle" font-weight="400">~/Downloads/&lt;client&gt;_&lt;type&gt;/index.html</text><text x="600.0" y="494" font-family="'ABC Diatype Mono', ui-monospace, SFMono-Regular, Menlo, monospace" font-size="11" fill="#8e8e99" text-anchor="middle" font-weight="400" letter-spacing="1.6">CLAUDE CODE · CODEX · ANY CODING AGENT</text></svg>
